SplineFontDB: 3.0
FontName: Etkai
FullName: Etkai
FamilyName: Etkai
Weight: Medium
Copyright: Created by Zeb Figura with FontForge 2.0 (http://fontforge.sf.net)\n\nRepresents the Etkai alphabet, which is encoded in Basic Latin.
UComments: "2012-10-10: Created." 
Version: 001.000
ItalicAngle: 0
UnderlinePosition: -100
UnderlineWidth: 50
Ascent: 1000
Descent: 0
LayerCount: 2
Layer: 0 0 "Back"  1
Layer: 1 0 "Fore"  0
XUID: [1021 18 560040095 11388862]
FSType: 8
OS2Version: 0
OS2_WeightWidthSlopeOnly: 0
OS2_UseTypoMetrics: 1
CreationTime: 1349916418
ModificationTime: 1351355572
PfmFamily: 17
TTFWeight: 500
TTFWidth: 5
LineGap: 90
VLineGap: 0
OS2TypoAscent: 0
OS2TypoAOffset: 1
OS2TypoDescent: 0
OS2TypoDOffset: 1
OS2TypoLinegap: 90
OS2WinAscent: 0
OS2WinAOffset: 1
OS2WinDescent: 0
OS2WinDOffset: 1
HheadAscent: 0
HheadAOffset: 1
HheadDescent: 0
HheadDOffset: 1
OS2Vendor: 'PfEd'
MarkAttachClasses: 1
DEI: 91125
LangName: 1033 
Encoding: UnicodeBmp
UnicodeInterp: none
NameList: Adobe Glyph List
DisplaySize: -24
AntiAlias: 1
FitToEm: 1
WinInfo: 288 32 4
BeginPrivate: 0
EndPrivate
Grid
-1000 1800 m 0
 2000 1800 l 0
EndSplineSet
TeXData: 1 0 0 346030 173015 115343 0 1048576 115343 783286 444596 497025 792723 393216 433062 380633 303038 157286 324010 404750 52429 2506097 1059062 262144
BeginChars: 65536 22

StartChar: k
Encoding: 107 107 0
Width: 1000
VWidth: 0
Flags: W
HStem: 0 150<0 719.628> 600 150<0 719.628>
VStem: 850 150<274.897 475.103>
LayerCount: 2
Fore
SplineSet
0 0 m 13
 0 150 l 29
 625 150 l 21
 625 150 850 150 850 375 c 4
 850 600 625 600 625 600 c 5
 0 600 l 29
 0 750 l 29
 625 750 l 21
 625 750 1000 750 1000 375 c 4
 1000 0 625 0 625 0 c 5
 0 0 l 13
EndSplineSet
Validated: 1
EndChar

StartChar: p
Encoding: 112 112 1
Width: 1000
VWidth: 0
Flags: W
HStem: 0 150<280.372 1000> 600 150<280.372 1000>
VStem: 0 150<274.897 475.103>
LayerCount: 2
Fore
SplineSet
1000 0 m 17
 375 0 l 1
 375 0 0 0 0 375 c 4
 0 750 375 750 375 750 c 9
 1000 750 l 25
 1000 600 l 25
 375 600 l 1
 375 600 150 600 150 375 c 0
 150 150 375 150 375 150 c 9
 1000 150 l 25
 1000 0 l 17
EndSplineSet
Validated: 1
EndChar

StartChar: g
Encoding: 103 103 2
Width: 1000
VWidth: 0
Flags: W
HStem: 0 150<0 719.628> 600 150<0 719.628> 800 150<175 825>
VStem: 850 150<274.897 475.103>
LayerCount: 2
Fore
SplineSet
175 800 m 29
 175 950 l 29
 825 950 l 29
 825 800 l 29
 175 800 l 29
0 0 m 9
 0 150 l 25
 625 150 l 17
 625 150 850 150 850 375 c 0
 850 600 625 600 625 600 c 1
 0 600 l 25
 0 750 l 25
 625 750 l 17
 625 750 1000 750 1000 375 c 0
 1000 0 625 0 625 0 c 1
 0 0 l 9
EndSplineSet
Validated: 1
EndChar

StartChar: b
Encoding: 98 98 3
Width: 1000
VWidth: 0
Flags: W
HStem: 0 150<280.372 1000> 600 150<280.372 1000> 800 150<175 825>
VStem: 0 150<274.897 475.103>
LayerCount: 2
Fore
SplineSet
1000 0 m 17
 375 0 l 1
 375 0 0 0 0 375 c 0
 0 750 375 750 375 750 c 9
 1000 750 l 25
 1000 600 l 25
 375 600 l 1
 375 600 150 600 150 375 c 0
 150 150 375 150 375 150 c 9
 1000 150 l 25
 1000 0 l 17
175 800 m 25
 175 950 l 25
 825 950 l 25
 825 800 l 25
 175 800 l 25
EndSplineSet
Validated: 1
EndChar

StartChar: t
Encoding: 116 116 4
Width: 1000
VWidth: 0
HStem: 0 150<0 425 575 1000> 600 150<0 425 575 1000>
VStem: 425 150<150 600>
LayerCount: 2
Fore
SplineSet
0 0 m 29
 0 150 l 29
 425 150 l 29
 425 600 l 29
 0 600 l 29
 0 750 l 29
 1000 750 l 29
 1000 600 l 29
 575 600 l 29
 575 150 l 29
 1000 150 l 29
 1000 0 l 29
 0 0 l 29
EndSplineSet
Validated: 1
EndChar

StartChar: d
Encoding: 100 100 5
Width: 1000
VWidth: 0
Flags: W
HStem: 0 150<0 425 575 1000> 600 150<0 425 575 1000> 800 150<175 825>
VStem: 425 150<150 600>
LayerCount: 2
Fore
SplineSet
175 800 m 29
 175 950 l 29
 825 950 l 29
 825 800 l 29
 175 800 l 29
0 0 m 25
 0 150 l 25
 425 150 l 25
 425 600 l 25
 0 600 l 25
 0 750 l 25
 1000 750 l 25
 1000 600 l 25
 575 600 l 25
 575 150 l 25
 1000 150 l 25
 1000 0 l 25
 0 0 l 25
EndSplineSet
Validated: 1
EndChar

StartChar: asciitilde
Encoding: 126 126 6
Width: 0
VWidth: 0
Flags: W
HStem: 800 150<-485.938 -234.113> 850 150<-765.886 -514.062>
LayerCount: 2
Fore
SplineSet
-825 800 m 13x80
 -825 950 l 17x80
 -825 950 -750 1000 -650 1000 c 1x40
 -550 1000 -450 950 -350 950 c 1x80
 -250 950 -175 1000 -175 1000 c 1
 -175 850 l 1x40
 -175 850 -250 800 -350 800 c 1x80
 -450 800 -550 850 -650 850 c 1x40
 -750 850 -825 800 -825 800 c 13x80
EndSplineSet
EndChar

StartChar: grave
Encoding: 96 96 7
Width: 1000
VWidth: 0
HStem: 800 150<514.062 765.886> 850 150<234.113 485.938>
LayerCount: 2
Fore
SplineSet
175 800 m 13x80
 175 950 l 17x80
 175 950 250 1000 350 1000 c 1x40
 450 1000 550 950 650 950 c 1x80
 750 950 825 1000 825 1000 c 1
 825 850 l 1x40
 825 850 750 800 650 800 c 1x80
 550 800 450 850 350 850 c 1x40
 250 850 175 800 175 800 c 13x80
EndSplineSet
EndChar

StartChar: f
Encoding: 102 102 8
Width: 1000
VWidth: 0
Flags: W
HStem: 0 150<280.372 850> 600 150<280.372 850>
VStem: 0 150<274.897 475.103> 850 150<150 600>
LayerCount: 2
Fore
SplineSet
850 150 m 5
 850 600 l 5
 375 600 l 5
 375 600 150 600 150 375 c 4
 150 150 375 150 375 150 c 5
 850 150 l 5
1000 750 m 25
 1000 0 l 17
 375 0 l 1
 375 0 0 0 0 375 c 0
 0 750 375 750 375 750 c 9
 1000 750 l 25
EndSplineSet
Validated: 1
EndChar

StartChar: v
Encoding: 118 118 9
Width: 1000
VWidth: 0
Flags: W
HStem: 0 150<280.372 850> 600 150<280.372 850> 800 150<175 825>
VStem: 0 150<274.897 475.103> 850 150<150 600>
LayerCount: 2
Fore
SplineSet
175 800 m 25
 175 950 l 25
 825 950 l 25
 825 800 l 25
 175 800 l 25
850 150 m 1
 850 600 l 1
 375 600 l 1
 375 600 150 600 150 375 c 0
 150 150 375 150 375 150 c 1
 850 150 l 1
1000 750 m 25
 1000 0 l 17
 375 0 l 1
 375 0 0 0 0 375 c 0
 0 750 375 750 375 750 c 9
 1000 750 l 25
EndSplineSet
Validated: 1
EndChar

StartChar: x
Encoding: 120 120 10
Width: 1000
VWidth: 0
Flags: W
HStem: 0 150<150 719.628> 600 150<150 719.628>
VStem: 0 150<150 600> 850 150<274.897 475.103>
LayerCount: 2
Fore
SplineSet
150 150 m 5
 625 150 l 5
 625 150 850 150 850 375 c 4
 850 600 625 600 625 600 c 5
 150 600 l 5
 150 150 l 5
0 0 m 9
 0 750 l 25
 625 750 l 17
 625 750 1000 750 1000 375 c 0
 1000 0 625 0 625 0 c 1
 0 0 l 9
EndSplineSet
Validated: 1
EndChar

StartChar: s
Encoding: 115 115 11
Width: 1000
VWidth: 0
Flags: W
HStem: 0 150<0 425 575 1000> 300 150<150 425 575 850> 600 150<0 425 575 1000>
VStem: 425 150<150 300 450 600>
CounterMasks: 1 e0
LayerCount: 2
Fore
SplineSet
850 300 m 9
 575 300 l 1
 575 150 l 9
 1000 150 l 25
 1000 0 l 25
 0 0 l 25
 0 150 l 25
 425 150 l 17
 425 300 l 25
 150 300 l 25
 150 450 l 25
 425 450 l 25
 425 600 l 25
 0 600 l 25
 0 750 l 25
 1000 750 l 25
 1000 600 l 25
 575 600 l 17
 575 450 l 1
 850 450 l 1
 850 300 l 9
EndSplineSet
Validated: 1
EndChar

StartChar: z
Encoding: 122 122 12
Width: 1000
VWidth: 0
Flags: W
HStem: 0 150<0 425 575 1000> 300 150<150 425 575 850> 600 150<0 425 575 1000> 800 150<175 825>
VStem: 425 150<150 300 450 600>
LayerCount: 2
Fore
SplineSet
175 800 m 29
 175 950 l 29
 825 950 l 29
 825 800 l 29
 175 800 l 29
850 300 m 9
 575 300 l 1
 575 150 l 9
 1000 150 l 25
 1000 0 l 25
 0 0 l 25
 0 150 l 25
 425 150 l 17
 425 300 l 25
 150 300 l 25
 150 450 l 25
 425 450 l 25
 425 600 l 25
 0 600 l 25
 0 750 l 25
 1000 750 l 25
 1000 600 l 25
 575 600 l 17
 575 450 l 1
 850 450 l 1
 850 300 l 9
EndSplineSet
Validated: 1
EndChar

StartChar: underscore
Encoding: 95 95 13
Width: 0
VWidth: 0
Flags: W
HStem: 800 150<-825 -175>
LayerCount: 2
Fore
SplineSet
-825 800 m 29
 -825 950 l 25
 -175 950 l 25
 -175 800 l 25
 -825 800 l 29
EndSplineSet
Validated: 1
EndChar

StartChar: hyphen
Encoding: 45 45 14
Width: 1000
VWidth: 0
Flags: W
HStem: 800 150<175 825>
LayerCount: 2
Fore
SplineSet
175 800 m 29
 175 950 l 29
 825 950 l 29
 825 800 l 29
 175 800 l 29
EndSplineSet
Validated: 1
EndChar

StartChar: m
Encoding: 109 109 15
Width: 1000
VWidth: 0
Flags: W
HStem: 0 150<280.372 1000> 600 150<280.372 1000> 800 150<514.062 765.886> 850 150<234.113 485.938>
VStem: 0 150<274.897 475.103>
LayerCount: 2
Fore
SplineSet
175 800 m 13xe8
 175 950 l 21xe8
 175 950 250 1000 350 1000 c 5xd8
 450 1000 550 950 650 950 c 5xe8
 750 950 825 1000 825 1000 c 5
 825 850 l 5xd8
 825 850 750 800 650 800 c 5xe8
 550 800 450 850 350 850 c 5xd8
 250 850 175 800 175 800 c 13xe8
1000 0 m 17
 375 0 l 1
 375 0 0 0 0 375 c 0
 0 750 375 750 375 750 c 9
 1000 750 l 25
 1000 600 l 25
 375 600 l 1
 375 600 150 600 150 375 c 0
 150 150 375 150 375 150 c 9
 1000 150 l 25
 1000 0 l 17
EndSplineSet
EndChar

StartChar: n
Encoding: 110 110 16
Width: 1000
VWidth: 0
Flags: W
HStem: 0 150<0 425 575 1000> 600 150<0 425 575 1000> 800 150<514.062 765.886> 850 150<234.113 485.938>
VStem: 425 150<150 600>
LayerCount: 2
Fore
SplineSet
175 800 m 13xe8
 175 950 l 21xe8
 175 950 250 1000 350 1000 c 5xd8
 450 1000 550 950 650 950 c 5xe8
 750 950 825 1000 825 1000 c 5
 825 850 l 5xd8
 825 850 750 800 650 800 c 5xe8
 550 800 450 850 350 850 c 5xd8
 250 850 175 800 175 800 c 13xe8
0 0 m 25
 0 150 l 25
 425 150 l 25
 425 600 l 25
 0 600 l 25
 0 750 l 25
 1000 750 l 25
 1000 600 l 25
 575 600 l 25
 575 150 l 25
 1000 150 l 25
 1000 0 l 25
 0 0 l 25
EndSplineSet
EndChar

StartChar: ncaron
Encoding: 328 328 17
Width: 1000
VWidth: 0
Flags: HWO
HStem: 800 150<514.062 765.886> 850 150<234.113 485.938>
LayerCount: 2
Fore
SplineSet
175 800 m 13x80
 175 950 l 21x80
 175 950 250 1000 350 1000 c 5x40
 450 1000 550 950 650 950 c 5x80
 750 950 825 1000 825 1000 c 5
 825 850 l 5x40
 825 850 750 800 650 800 c 5x80
 550 800 450 850 350 850 c 5x40
 250 850 175 800 175 800 c 13x80
0 0 m 9
 0 150 l 25
 625 150 l 17
 625 150 850 150 850 375 c 0
 850 600 625 600 625 600 c 1
 0 600 l 25
 0 750 l 25
 625 750 l 17
 625 750 1000 750 1000 375 c 0
 1000 0 625 0 625 0 c 1
 0 0 l 9
EndSplineSet
EndChar

StartChar: tcaron
Encoding: 357 357 18
Width: 1000
VWidth: 0
Flags: W
HStem: 0 150<405.372 1000> 600 150<0 1000>
VStem: 125 150<274.897 475.103>
LayerCount: 2
Fore
SplineSet
0 750 m 25
 500 750 l 25
 500 600 l 29
 0 600 l 25
 0 750 l 25
1000 0 m 17
 500 0 l 1
 500 0 125 0 125 375 c 0
 125 750 500 750 500 750 c 9
 1000 750 l 25
 1000 600 l 25
 500 600 l 1
 500 600 275 600 275 375 c 0
 275 150 500 150 500 150 c 9
 1000 150 l 25
 1000 0 l 17
EndSplineSet
Validated: 5
EndChar

StartChar: dcaron
Encoding: 271 271 19
Width: 1000
VWidth: 0
Flags: W
HStem: 0 150<405.372 1000> 600 150<0 1000> 800 150<175 825>
VStem: 125 150<274.897 475.103>
LayerCount: 2
Fore
SplineSet
175 800 m 29
 175 950 l 29
 825 950 l 29
 825 800 l 29
 175 800 l 29
0 750 m 25
 500 750 l 25
 500 600 l 25
 0 600 l 25
 0 750 l 25
1000 0 m 17
 500 0 l 1
 500 0 125 0 125 375 c 0
 125 750 500 750 500 750 c 9
 1000 750 l 25
 1000 600 l 25
 500 600 l 1
 500 600 275 600 275 375 c 0
 275 150 500 150 500 150 c 9
 1000 150 l 25
 1000 0 l 17
EndSplineSet
Validated: 5
EndChar

StartChar: scaron
Encoding: 353 353 20
Width: 1000
VWidth: 0
HStem: 0 150<300 1000> 600 150<0 700>
LayerCount: 2
Fore
SplineSet
0 600 m 29
 0 750 l 25
 1000 750 l 25
 1000 600 l 25
 300 150 l 25
 1000 150 l 25
 1000 0 l 25
 0 0 l 25
 0 150 l 25
 700 600 l 25
 0 600 l 29
EndSplineSet
Validated: 1
EndChar

StartChar: zcaron
Encoding: 382 382 21
Width: 1000
VWidth: 0
Flags: W
HStem: 0 150<300 1000> 600 150<0 700> 800 150<175 825>
LayerCount: 2
Fore
SplineSet
175 800 m 29
 175 950 l 29
 825 950 l 29
 825 800 l 29
 175 800 l 29
0 600 m 25
 0 750 l 25
 1000 750 l 25
 1000 600 l 25
 300 150 l 25
 1000 150 l 25
 1000 0 l 25
 0 0 l 25
 0 150 l 25
 700 600 l 25
 0 600 l 25
EndSplineSet
Validated: 1
EndChar
